<mxfile host="app.diagrams.net" agent="Mozilla/5.0 (Macintosh; Intel Mac OS X 10_15_7) AppleWebKit/605.1.15 (KHTML, like Gecko) Version/18.3 Safari/605.1.15" version="26.0.14">
  <diagram name="Page-1" id="ePtRdiWB0lYETpGEfXJb">
    <mxGraphModel dx="1158" dy="1112" grid="0" gridSize="10" guides="1" tooltips="1" connect="1" arrows="1" fold="1" page="0" pageScale="1" pageWidth="850" pageHeight="1100" math="0" shadow="0">
      <root>
        <mxCell id="0" />
        <mxCell id="1" parent="0" />
        <mxCell id="HpuaDuaV2_q1oHEFar94-27" style="rounded=0;orthogonalLoop=1;jettySize=auto;html=1;entryX=0;entryY=0.5;entryDx=0;entryDy=0;fontSize=12;startArrow=ERone;startFill=0;endArrow=ERone;endFill=0;" parent="1" source="HpuaDuaV2_q1oHEFar94-1" target="HpuaDuaV2_q1oHEFar94-10" edge="1">
          <mxGeometry relative="1" as="geometry" />
        </mxCell>
        <mxCell id="HpuaDuaV2_q1oHEFar94-28" style="edgeStyle=none;curved=1;rounded=0;orthogonalLoop=1;jettySize=auto;html=1;fontSize=12;startSize=8;endSize=8;startArrow=ERone;startFill=0;endArrow=ERmany;endFill=0;" parent="1" source="HpuaDuaV2_q1oHEFar94-1" target="HpuaDuaV2_q1oHEFar94-17" edge="1">
          <mxGeometry relative="1" as="geometry">
            <mxPoint x="655" y="-2" as="targetPoint" />
          </mxGeometry>
        </mxCell>
        <mxCell id="HpuaDuaV2_q1oHEFar94-1" value="Пользователь (User)" style="swimlane;childLayout=stackLayout;horizontal=1;startSize=50;horizontalStack=0;rounded=1;strokeWidth=2;resizeParent=0;resizeLast=1;shadow=0;dashed=0;align=center;arcSize=4;whiteSpace=wrap;html=1;" parent="1" vertex="1">
          <mxGeometry x="595" y="-213" width="233" height="177" as="geometry">
            <mxRectangle x="501" y="-118" width="151" height="50" as="alternateBounds" />
          </mxGeometry>
        </mxCell>
        <mxCell id="HpuaDuaV2_q1oHEFar94-2" value="&lt;b&gt;ID (PK)&lt;/b&gt;&lt;div&gt;Имя&lt;/div&gt;&lt;div&gt;Фото&lt;/div&gt;&lt;div&gt;Дата рождения&lt;/div&gt;&lt;div&gt;Город&lt;/div&gt;&lt;div&gt;Email&lt;/div&gt;&lt;div&gt;ID программы лояльности (FK)&lt;/div&gt;&lt;div&gt;Настройки оповещений&lt;/div&gt;" style="align=left;strokeColor=none;fillColor=none;spacingLeft=4;fontSize=12;verticalAlign=middle;resizable=0;rotatable=0;part=1;html=1;" parent="HpuaDuaV2_q1oHEFar94-1" vertex="1">
          <mxGeometry y="50" width="233" height="127" as="geometry" />
        </mxCell>
        <mxCell id="HpuaDuaV2_q1oHEFar94-10" value="Программа лояльности (Loyalty program)" style="swimlane;childLayout=stackLayout;horizontal=1;startSize=50;horizontalStack=0;rounded=1;strokeWidth=2;resizeParent=0;resizeLast=1;shadow=0;dashed=0;align=center;arcSize=4;whiteSpace=wrap;html=1;verticalAlign=middle;" parent="1" vertex="1">
          <mxGeometry x="872" y="-213" width="233" height="177" as="geometry">
            <mxRectangle x="707" y="-118" width="264" height="50" as="alternateBounds" />
          </mxGeometry>
        </mxCell>
        <mxCell id="HpuaDuaV2_q1oHEFar94-11" value="&lt;b&gt;ID (PK)&lt;/b&gt;&lt;br&gt;ID пользователя (FK)&lt;br&gt;Бонусный баланс&lt;br&gt;Дата последнего обновления" style="align=left;strokeColor=none;fillColor=none;spacingLeft=4;verticalAlign=middle;resizable=0;rotatable=0;part=1;html=1;" parent="HpuaDuaV2_q1oHEFar94-10" vertex="1">
          <mxGeometry y="50" width="233" height="127" as="geometry" />
        </mxCell>
        <mxCell id="HpuaDuaV2_q1oHEFar94-13" value="Товар (Product)" style="swimlane;childLayout=stackLayout;horizontal=1;startSize=50;horizontalStack=0;rounded=1;strokeWidth=2;resizeParent=0;resizeLast=1;shadow=0;dashed=0;align=center;arcSize=4;whiteSpace=wrap;html=1;" parent="1" vertex="1">
          <mxGeometry x="318" y="11" width="233" height="177" as="geometry">
            <mxRectangle x="319" y="-19" width="122" height="50" as="alternateBounds" />
          </mxGeometry>
        </mxCell>
        <mxCell id="HpuaDuaV2_q1oHEFar94-14" value="&lt;b&gt;ID (PK)&lt;/b&gt;&lt;div&gt;Название&lt;br&gt;Фото&lt;br&gt;Информация о товаре&lt;br&gt;Стоимость&lt;br&gt;Масса&lt;br&gt;Состав&lt;br&gt;Информация о наличии&lt;/div&gt;" style="align=left;strokeColor=none;fillColor=none;spacingLeft=4;verticalAlign=middle;resizable=0;rotatable=0;part=1;html=1;" parent="HpuaDuaV2_q1oHEFar94-13" vertex="1">
          <mxGeometry y="50" width="233" height="127" as="geometry" />
        </mxCell>
        <mxCell id="HpuaDuaV2_q1oHEFar94-15" value="Отзыв (Review)" style="swimlane;childLayout=stackLayout;horizontal=1;startSize=50;horizontalStack=0;rounded=1;strokeWidth=2;resizeParent=0;resizeLast=1;shadow=0;dashed=0;align=center;arcSize=4;whiteSpace=wrap;html=1;gradientColor=none;swimlaneFillColor=none;glass=0;comic=0;treeFolding=0;" parent="1" vertex="1">
          <mxGeometry x="318" y="-213" width="233" height="177" as="geometry">
            <mxRectangle x="319" y="-118" width="122" height="50" as="alternateBounds" />
          </mxGeometry>
        </mxCell>
        <mxCell id="HpuaDuaV2_q1oHEFar94-16" value="&lt;b&gt;ID (PK)&lt;/b&gt;&lt;div&gt;ID пользователя (FK)&lt;br&gt;ID товара (FK)&lt;br&gt;Оценка&lt;br&gt;Текст отзыва&lt;br&gt;Дата публикации&lt;/div&gt;" style="align=left;strokeColor=none;fillColor=none;spacingLeft=4;verticalAlign=middle;resizable=0;rotatable=0;part=1;html=1;" parent="HpuaDuaV2_q1oHEFar94-15" vertex="1">
          <mxGeometry y="50" width="233" height="127" as="geometry" />
        </mxCell>
        <mxCell id="HpuaDuaV2_q1oHEFar94-17" value="Заказ (Order)" style="swimlane;childLayout=stackLayout;horizontal=1;startSize=50;horizontalStack=0;rounded=1;strokeWidth=2;resizeParent=0;resizeLast=1;shadow=0;dashed=0;align=center;arcSize=4;whiteSpace=wrap;html=1;" parent="1" vertex="1">
          <mxGeometry x="595" y="11" width="233" height="177" as="geometry">
            <mxRectangle x="521" y="-19" width="111" height="50" as="alternateBounds" />
          </mxGeometry>
        </mxCell>
        <mxCell id="HpuaDuaV2_q1oHEFar94-18" value="&lt;b&gt;ID (PK)&lt;br&gt;&lt;/b&gt;ID пользователя (FK)&lt;br&gt;Дата создания&lt;br&gt;Способ получения&lt;br&gt;Статус&lt;br&gt;Сумма" style="align=left;strokeColor=none;fillColor=none;spacingLeft=4;verticalAlign=middle;resizable=0;rotatable=0;part=1;html=1;" parent="HpuaDuaV2_q1oHEFar94-17" vertex="1">
          <mxGeometry y="50" width="233" height="127" as="geometry" />
        </mxCell>
        <mxCell id="HpuaDuaV2_q1oHEFar94-21" value="Способы оплаты (Payment Method)" style="swimlane;childLayout=stackLayout;horizontal=1;startSize=50;horizontalStack=0;rounded=1;strokeWidth=2;resizeParent=0;resizeLast=1;shadow=0;dashed=0;align=center;arcSize=4;whiteSpace=wrap;html=1;verticalAlign=middle;" parent="1" vertex="1">
          <mxGeometry x="872" y="11" width="233" height="177" as="geometry">
            <mxRectangle x="712" y="-19" width="232" height="50" as="alternateBounds" />
          </mxGeometry>
        </mxCell>
        <mxCell id="HpuaDuaV2_q1oHEFar94-22" value="&lt;b&gt;ID (PK)&lt;/b&gt;&lt;br&gt;ID пользователя (FK)&lt;br&gt;Название" style="align=left;strokeColor=none;fillColor=none;spacingLeft=4;verticalAlign=middle;resizable=0;rotatable=0;part=1;html=1;" parent="HpuaDuaV2_q1oHEFar94-21" vertex="1">
          <mxGeometry y="50" width="233" height="127" as="geometry" />
        </mxCell>
        <mxCell id="HpuaDuaV2_q1oHEFar94-23" value="Оплата (Payment)" style="swimlane;childLayout=stackLayout;horizontal=1;startSize=50;horizontalStack=0;rounded=1;strokeWidth=2;resizeParent=0;resizeLast=1;shadow=0;dashed=0;align=center;arcSize=4;whiteSpace=wrap;html=1;verticalAlign=middle;" parent="1" vertex="1">
          <mxGeometry x="872" y="235" width="233" height="177" as="geometry">
            <mxRectangle x="712" y="77" width="136" height="50" as="alternateBounds" />
          </mxGeometry>
        </mxCell>
        <mxCell id="HpuaDuaV2_q1oHEFar94-24" value="&lt;b&gt;ID (PK)&lt;/b&gt;&lt;br&gt;ID заказа (FK)&lt;br&gt;ID способа оплаты (FK)&lt;br&gt;Статус транзакции&lt;br&gt;Сумма списанных бонусов" style="align=left;strokeColor=none;fillColor=none;spacingLeft=4;verticalAlign=middle;resizable=0;rotatable=0;part=1;html=1;" parent="HpuaDuaV2_q1oHEFar94-23" vertex="1">
          <mxGeometry y="50" width="233" height="127" as="geometry" />
        </mxCell>
        <mxCell id="HpuaDuaV2_q1oHEFar94-25" value="Доставка (Delivery)" style="swimlane;childLayout=stackLayout;horizontal=1;startSize=50;horizontalStack=0;rounded=1;strokeWidth=2;resizeParent=0;resizeLast=1;shadow=0;dashed=0;align=center;arcSize=4;whiteSpace=wrap;html=1;" parent="1" vertex="1">
          <mxGeometry x="318" y="235" width="234" height="177" as="geometry">
            <mxRectangle x="505" y="75" width="143" height="50" as="alternateBounds" />
          </mxGeometry>
        </mxCell>
        <mxCell id="HpuaDuaV2_q1oHEFar94-26" value="&lt;b&gt;ID (PK)&lt;/b&gt;&lt;div&gt;ID заказа (FK)&lt;br&gt;Тип&amp;nbsp;&lt;br&gt;Адрес&lt;br&gt;Курьер&lt;br&gt;Статус доставки&lt;/div&gt;" style="align=left;strokeColor=none;fillColor=none;spacingLeft=4;verticalAlign=middle;resizable=0;rotatable=0;part=1;html=1;" parent="HpuaDuaV2_q1oHEFar94-25" vertex="1">
          <mxGeometry y="50" width="234" height="127" as="geometry" />
        </mxCell>
        <mxCell id="HpuaDuaV2_q1oHEFar94-29" style="edgeStyle=none;curved=1;rounded=0;orthogonalLoop=1;jettySize=auto;html=1;fontSize=12;startSize=8;endSize=8;startArrow=ERone;startFill=0;endArrow=ERmany;endFill=0;" parent="1" source="HpuaDuaV2_q1oHEFar94-1" target="HpuaDuaV2_q1oHEFar94-15" edge="1">
          <mxGeometry relative="1" as="geometry">
            <mxPoint x="530" y="-30" as="sourcePoint" />
            <mxPoint x="393" y="-87" as="targetPoint" />
          </mxGeometry>
        </mxCell>
        <mxCell id="HpuaDuaV2_q1oHEFar94-30" style="edgeStyle=none;curved=1;rounded=0;orthogonalLoop=1;jettySize=auto;html=1;fontSize=12;startSize=8;endSize=8;startArrow=ERone;startFill=0;endArrow=ERmany;endFill=0;" parent="1" source="HpuaDuaV2_q1oHEFar94-1" target="HpuaDuaV2_q1oHEFar94-21" edge="1">
          <mxGeometry relative="1" as="geometry">
            <mxPoint x="536" y="18" as="sourcePoint" />
            <mxPoint x="639" y="63" as="targetPoint" />
          </mxGeometry>
        </mxCell>
        <mxCell id="HpuaDuaV2_q1oHEFar94-32" style="edgeStyle=none;curved=1;rounded=0;orthogonalLoop=1;jettySize=auto;html=1;fontSize=12;startSize=8;endSize=8;startArrow=ERone;startFill=0;endArrow=ERmany;endFill=0;" parent="1" source="HpuaDuaV2_q1oHEFar94-13" target="HpuaDuaV2_q1oHEFar94-15" edge="1">
          <mxGeometry relative="1" as="geometry">
            <mxPoint x="442.5" y="-37" as="sourcePoint" />
            <mxPoint x="622.5" y="100" as="targetPoint" />
          </mxGeometry>
        </mxCell>
        <mxCell id="HpuaDuaV2_q1oHEFar94-33" style="edgeStyle=none;curved=1;rounded=0;orthogonalLoop=1;jettySize=auto;html=1;fontSize=12;startSize=8;endSize=8;startArrow=ERmany;startFill=0;endArrow=ERmany;endFill=0;" parent="1" source="HpuaDuaV2_q1oHEFar94-17" target="HpuaDuaV2_q1oHEFar94-13" edge="1">
          <mxGeometry relative="1" as="geometry">
            <mxPoint x="507" y="92" as="sourcePoint" />
            <mxPoint x="687" y="229" as="targetPoint" />
          </mxGeometry>
        </mxCell>
        <mxCell id="HpuaDuaV2_q1oHEFar94-34" style="rounded=0;orthogonalLoop=1;jettySize=auto;html=1;fontSize=12;startArrow=ERone;startFill=0;endArrow=ERone;endFill=0;" parent="1" source="HpuaDuaV2_q1oHEFar94-23" target="HpuaDuaV2_q1oHEFar94-17" edge="1">
          <mxGeometry relative="1" as="geometry">
            <mxPoint x="532" y="110.58000000000001" as="sourcePoint" />
            <mxPoint x="590" y="110.58000000000001" as="targetPoint" />
          </mxGeometry>
        </mxCell>
        <mxCell id="HpuaDuaV2_q1oHEFar94-35" style="rounded=0;orthogonalLoop=1;jettySize=auto;html=1;fontSize=12;startArrow=ERone;startFill=0;endArrow=ERone;endFill=0;" parent="1" source="HpuaDuaV2_q1oHEFar94-17" target="HpuaDuaV2_q1oHEFar94-25" edge="1">
          <mxGeometry relative="1" as="geometry">
            <mxPoint x="872" y="31" as="sourcePoint" />
            <mxPoint x="930" y="31" as="targetPoint" />
          </mxGeometry>
        </mxCell>
        <mxCell id="HpuaDuaV2_q1oHEFar94-36" style="edgeStyle=none;curved=1;rounded=0;orthogonalLoop=1;jettySize=auto;html=1;fontSize=12;startSize=8;endSize=8;startArrow=ERone;startFill=0;endArrow=ERmany;endFill=0;" parent="1" source="HpuaDuaV2_q1oHEFar94-21" target="HpuaDuaV2_q1oHEFar94-23" edge="1">
          <mxGeometry relative="1" as="geometry">
            <mxPoint x="495" y="170" as="sourcePoint" />
            <mxPoint x="675" y="307" as="targetPoint" />
          </mxGeometry>
        </mxCell>
      </root>
    </mxGraphModel>
  </diagram>
</mxfile>
